<svg width="16" height="19" viewBox="0 0 16 19" fill="none" xmlns="http://www.w3.org/2000/svg">
<path d="M10.9565 1.3823C12.0618 1.95611 12.9914 2.70466 13.7455 3.62796C14.4998 4.55215 15.0498 5.56031 15.3955 6.65242C15.7409 7.74364 15.8711 8.88391 15.7863 10.0732C15.7014 11.2626 15.3722 12.4096 14.7987 13.5142C14.2255 14.6183 13.4766 15.5478 12.5521 16.3027C11.6276 17.0577 10.6196 17.6081 9.5281 17.9541C8.43568 18.3004 7.29451 18.4309 6.10459 18.3457C4.91526 18.2608 3.76796 17.9315 2.6627 17.3577C2.19587 17.1153 1.76116 16.8386 1.35858 16.5274C0.95511 16.2165 0.59153 15.8606 0.267845 15.4597C1.87273 15.1204 3.32263 14.4624 4.61756 13.4859C5.91188 12.5106 6.9384 11.2922 7.69713 9.83076C8.45586 8.36931 8.86171 6.82869 8.91467 5.2089C8.96766 3.58763 8.67167 2.02291 8.0267 0.514762C8.54084 0.548823 9.04111 0.641414 9.52752 0.792535C10.0128 0.943042 10.4891 1.13963 10.9565 1.3823Z" fill="#474747"/>
</svg>
