<svg width="23" height="23" viewBox="0 0 23 23" fill="none" xmlns="http://www.w3.org/2000/svg">
<path d="M10.9228 3.9076V0H12.0772V3.9076H10.9228ZM17.2673 6.54999L16.4789 5.76154L19.2009 2.93099L20.0402 3.77715L17.2673 6.54999ZM19.0912 12.0772V10.9228H23V12.0772H19.0912ZM10.9228 23V19.1143H12.0772V23H10.9228ZM5.77655 6.51305L2.93099 3.79909L3.79909 2.98178L6.57077 5.73268L5.77655 6.51305ZM19.194 20.0679L16.4789 17.2373L17.2604 16.4777L20.0182 19.1871L19.194 20.0679ZM0 12.0772V10.9228H3.9076V12.0772H0ZM3.77715 20.069L2.98178 19.2009L5.70382 16.4789L6.1194 16.8818L6.55576 17.2892L3.77715 20.069ZM11.5058 17.2719C9.90348 17.2719 8.54015 16.7113 7.41578 15.59C6.29064 14.4687 5.72807 13.1073 5.72807 11.5058C5.72807 9.90348 6.28871 8.54015 7.41001 7.41578C8.5313 6.29064 9.89271 5.72807 11.4942 5.72807C13.0965 5.72807 14.4598 6.28871 15.5842 7.41001C16.7094 8.5313 17.2719 9.89271 17.2719 11.4942C17.2719 13.0965 16.7113 14.4598 15.59 15.5842C14.4687 16.7094 13.1073 17.2719 11.5058 17.2719Z" fill="#38D9BA"/>
</svg>
